<svg width="40" height="40" viewBox="0 0 40 40" fill="none" xmlns="http://www.w3.org/2000/svg">
<g clip-path="url(#clip0_107_10733)">
<circle cx="20" cy="20" r="19.375" stroke="#002C5F" stroke-width="1.25"/>
<circle cx="20" cy="20" r="14.5833" stroke="#002C5F" stroke-width="0.833333"/>
<circle cx="19.9987" cy="20.0002" r="3.75" stroke="#002C5F" stroke-width="0.833333"/>
<path d="M20.8346 0L19.168 3.33333" stroke="#002C5F" stroke-width="0.833333"/>
<path d="M11.5595 2.49995L11.0216 5.79782" stroke="#002C5F" stroke-width="0.833333"/>
<path d="M4.10294 8.33338L5.88734 11.1442" stroke="#002C5F" stroke-width="0.833333"/>
<path d="M1.08242 14.1667L3.56408 16.2296" stroke="#002C5F" stroke-width="0.833333"/>
<path d="M20.8346 36.6665L19.168 39.9998" stroke="#002C5F" stroke-width="0.833333"/>
<path d="M0.832031 23.3335L4.16536 24.1668" stroke="#002C5F" stroke-width="0.833333"/>
<path d="M3.33203 30.8008L6.76794 30.809" stroke="#002C5F" stroke-width="0.833333"/>
<path d="M10 37.0835L12.5 35.8335" stroke="#002C5F" stroke-width="0.833333"/>
<path d="M28.332 37.5002L29.1654 34.5835" stroke="#002C5F" stroke-width="0.833333"/>
<path d="M34.582 32.9165V29.1665" stroke="#002C5F" stroke-width="0.833333"/>
<path d="M37.9167 27.0832L36.25 25.4165" stroke="#002C5F" stroke-width="0.833333"/>
<path d="M39.5846 20.4167L36.668 18.75" stroke="#002C5F" stroke-width="0.833333"/>
<path d="M38.3333 12.5002L35 12.0835" stroke="#002C5F" stroke-width="0.833333"/>
<path d="M34.5833 7.0835L31.25 7.50016" stroke="#002C5F" stroke-width="0.833333"/>
<path d="M28.7513 2.5L26.668 4.16667" stroke="#002C5F" stroke-width="0.833333"/>
<path d="M15 6.6665L16.5 8.33317H23.5L25 6.6665" stroke="#002C5F" stroke-width="0.833333"/>
<path d="M15 33.3335L16.5 31.6668H23.5L25 33.3335" stroke="#002C5F" stroke-width="0.833333"/>
<path d="M28.9414 31.1602L28.248 29.0278L31.748 22.9656L33.9414 22.4999" stroke="#002C5F" stroke-width="0.833333"/>
<path d="M5.83203 16.4292L8.06184 16.1931L12.1707 10.5259L11.7018 8.33316" stroke="#002C5F" stroke-width="0.833333"/>
<path d="M10.832 31.1602L11.5254 29.0278L8.02541 22.9656L5.83203 22.4999" stroke="#002C5F" stroke-width="0.833333"/>
<path d="M33.9414 16.9937L31.748 16.5279L28.248 10.4658L28.9414 8.3334" stroke="#002C5F" stroke-width="0.833333"/>
<path d="M23.7513 13.3335H16.2513L11.668 20.0002L16.2513 27.0835H23.7513L27.918 20.0002L23.7513 13.3335Z" stroke="#002C5F" stroke-width="0.833333"/>
</g>
<defs>
<clipPath id="clip0_107_10733">
<rect width="40" height="40" fill="white"/>
</clipPath>
</defs>
</svg>
