<svg width="40" height="40" viewBox="0 0 40 40" fill="none" xmlns="http://www.w3.org/2000/svg">
<g clip-path="url(#clip0_107_10934)">
<mask id="path-1-inside-1_107_10934" fill="white">
<path fill-rule="evenodd" clip-rule="evenodd" d="M14.1279 27.4305C14.1279 29.5755 12.389 31.3145 10.244 31.3145L8.69039 31.3145C6.54534 31.3145 4.80644 29.5755 4.80644 27.4305L4.80644 25.9257C4.1363 25.7533 3.64111 25.145 3.64111 24.421C3.64111 24.2065 3.815 24.0326 4.02951 24.0326L4.80644 24.0326L4.80644 15.7786C4.80644 14.7061 5.67589 13.8367 6.74842 13.8367L12.186 13.8367C13.2585 13.8367 14.1279 14.7061 14.1279 15.7786L14.1279 24.0326L14.9046 24.0326C15.1191 24.0326 15.293 24.2065 15.293 24.421C15.293 25.1449 14.7979 25.7531 14.1279 25.9256L14.1279 27.4305Z"/>
</mask>
<path d="M14.1279 27.4305L13.6424 27.4305L14.1279 27.4305ZM4.80644 25.9257L5.29193 25.9257L5.29193 25.5493L4.92741 25.4555L4.80644 25.9257ZM4.80644 24.0326L4.80644 24.5181L5.29193 24.5181L5.29193 24.0326L4.80644 24.0326ZM14.1279 24.0326L13.6424 24.0326L13.6424 24.5181L14.1279 24.5181L14.1279 24.0326ZM14.9046 24.0326L14.9046 23.5471L14.9046 24.0326ZM14.1279 25.9256L14.0069 25.4555L13.6424 25.5493L13.6424 25.9256L14.1279 25.9256ZM10.244 31.7999C12.6572 31.7999 14.6134 29.8437 14.6134 27.4305L13.6424 27.4305C13.6424 29.3074 12.1209 30.829 10.244 30.829L10.244 31.7999ZM8.69039 31.7999L10.244 31.7999L10.244 30.829L8.69039 30.829L8.69039 31.7999ZM4.32094 27.4305C4.32094 29.8437 6.27721 31.7999 8.69039 31.7999L8.69039 30.829C6.81347 30.829 5.29193 29.3074 5.29193 27.4305L4.32094 27.4305ZM4.32094 25.9257L4.32094 27.4305L5.29193 27.4305L5.29193 25.9257L4.32094 25.9257ZM3.15562 24.421C3.15562 25.3719 3.80601 26.1696 4.68547 26.3959L4.92741 25.4555C4.46658 25.337 4.12661 24.9181 4.12661 24.421L3.15562 24.421ZM4.02951 23.5471C3.54687 23.5471 3.15562 23.9384 3.15562 24.421L4.12661 24.421C4.12661 24.4747 4.08314 24.5181 4.02951 24.5181L4.02951 23.5471ZM4.80644 23.5471L4.02951 23.5471L4.02951 24.5181L4.80644 24.5181L4.80644 23.5471ZM4.32094 15.7786L4.32094 24.0326L5.29193 24.0326L5.29193 15.7786L4.32094 15.7786ZM6.74842 13.3512C5.40776 13.3512 4.32094 14.438 4.32094 15.7786L5.29193 15.7786C5.29193 14.9742 5.94402 14.3221 6.74842 14.3221L6.74842 13.3512ZM12.186 13.3512L6.74842 13.3512L6.74842 14.3221L12.186 14.3221L12.186 13.3512ZM14.6134 15.7786C14.6134 14.438 13.5266 13.3512 12.186 13.3512L12.186 14.3221C12.9903 14.3221 13.6424 14.9742 13.6424 15.7786L14.6134 15.7786ZM14.6134 24.0326L14.6134 15.7786L13.6424 15.7786L13.6424 24.0326L14.6134 24.0326ZM14.9046 23.5471L14.1279 23.5471L14.1279 24.5181L14.9046 24.5181L14.9046 23.5471ZM15.7785 24.421C15.7785 23.9384 15.3872 23.5471 14.9046 23.5471L14.9046 24.5181C14.8509 24.5181 14.8075 24.4747 14.8075 24.421L15.7785 24.421ZM14.249 26.3958C15.1283 26.1694 15.7785 25.3718 15.7785 24.421L14.8075 24.421C14.8075 24.918 14.4676 25.3368 14.0069 25.4555L14.249 26.3958ZM14.6134 27.4305L14.6134 25.9256L13.6424 25.9256L13.6424 27.4305L14.6134 27.4305Z" fill="#545454" mask="url(#path-1-inside-1_107_10934)"/>
<rect x="12.1362" y="27.1879" width="5.34044" height="10.1954" rx="1.69923" transform="rotate(-180 12.1362 27.1879)" stroke="#545454" stroke-width="0.485494"/>
<path d="M11.8945 24.0322L7.03959 24.0322" stroke="#545454" stroke-width="0.485494"/>
<path d="M12.1367 20.6338L7.03903 20.6338" stroke="#545454" stroke-width="0.485494"/>
<path d="M5.82812 38.5974C7.28461 37.2623 11.6541 36.4127 14.2029 38.5974" stroke="#545454" stroke-width="0.728242"/>
<path d="M4.37109 35.8022C6.27085 34.3495 11.9701 33.4251 15.2947 35.8022" stroke="#545454" stroke-width="0.728242"/>
<mask id="path-8-inside-2_107_10934" fill="white">
<path fill-rule="evenodd" clip-rule="evenodd" d="M33.792 13.5946C33.792 15.7396 32.0531 17.4785 29.908 17.4785L28.3545 17.4785C26.2094 17.4785 24.4705 15.7396 24.4705 13.5946L24.4705 12.0887C23.8006 11.9161 23.3057 11.3079 23.3057 10.5841C23.3057 10.3696 23.4796 10.1957 23.6941 10.1957L24.4705 10.1957L24.4705 1.9427C24.4705 0.870172 25.34 0.000716322 26.4125 0.000716416L31.85 0.000716891C32.9225 0.000716985 33.792 0.87017 33.792 1.94269L33.792 10.1957L34.5686 10.1957C34.7831 10.1957 34.957 10.3696 34.957 10.5841C34.957 11.308 34.462 11.9162 33.792 12.0887L33.792 13.5946Z"/>
</mask>
<path d="M33.792 13.5946L34.2775 13.5946L33.792 13.5946ZM24.4705 13.5946L24.956 13.5946L24.4705 13.5946ZM24.4705 12.0887L24.956 12.0887L24.956 11.7124L24.5916 11.6185L24.4705 12.0887ZM24.4705 10.1957L24.4705 10.6812L24.956 10.6812L24.956 10.1957L24.4705 10.1957ZM33.792 10.1957L33.3065 10.1957L33.3065 10.6812L33.792 10.6812L33.792 10.1957ZM34.5686 10.1957L34.5686 9.71022L34.5686 10.1957ZM33.792 12.0887L33.6709 11.6186L33.3065 11.7124L33.3065 12.0887L33.792 12.0887ZM29.908 17.964C32.3212 17.964 34.2775 16.0077 34.2775 13.5946L33.3065 13.5946C33.3065 15.4715 31.785 16.993 29.908 16.993L29.908 17.964ZM28.3545 17.964L29.908 17.964L29.908 16.993L28.3545 16.993L28.3545 17.964ZM23.985 13.5946C23.985 16.0077 25.9413 17.964 28.3545 17.964L28.3545 16.993C26.4775 16.993 24.956 15.4715 24.956 13.5946L23.985 13.5946ZM23.985 12.0887L23.985 13.5946L24.956 13.5946L24.956 12.0887L23.985 12.0887ZM22.8202 10.5841C22.8202 11.5347 23.4702 12.3323 24.3494 12.5588L24.5916 11.6185C24.131 11.4998 23.7912 11.081 23.7912 10.5841L22.8202 10.5841ZM23.6941 9.71022C23.2114 9.71022 22.8202 10.1015 22.8202 10.5841L23.7912 10.5841C23.7912 10.6377 23.7477 10.6812 23.6941 10.6812L23.6941 9.71022ZM24.4705 9.71022L23.6941 9.71022L23.6941 10.6812L24.4705 10.6812L24.4705 9.71022ZM23.985 1.9427L23.985 10.1957L24.956 10.1957L24.956 1.9427L23.985 1.9427ZM26.4125 -0.484778C25.0718 -0.484778 23.985 0.60204 23.985 1.9427L24.956 1.9427C24.956 1.1383 25.6081 0.486211 26.4125 0.486211L26.4125 -0.484778ZM31.85 -0.484778L26.4125 -0.484778L26.4125 0.486211L31.85 0.486212L31.85 -0.484778ZM34.2775 1.94269C34.2775 0.602039 33.1907 -0.484778 31.85 -0.484778L31.85 0.486212C32.6544 0.486212 33.3065 1.1383 33.3065 1.94269L34.2775 1.94269ZM34.2775 10.1957L34.2775 1.94269L33.3065 1.94269L33.3065 10.1957L34.2775 10.1957ZM34.5686 9.71022L33.792 9.71022L33.792 10.6812L34.5686 10.6812L34.5686 9.71022ZM35.4425 10.5841C35.4425 10.1015 35.0513 9.71022 34.5686 9.71022L34.5686 10.6812C34.515 10.6812 34.4715 10.6377 34.4715 10.5841L35.4425 10.5841ZM33.9131 12.5589C34.7923 12.3325 35.4425 11.5348 35.4425 10.5841L34.4715 10.5841C34.4715 11.0811 34.1317 11.4999 33.6709 11.6186L33.9131 12.5589ZM34.2775 13.5946L34.2775 12.0887L33.3065 12.0887L33.3065 13.5946L34.2775 13.5946Z" fill="#545454" mask="url(#path-8-inside-2_107_10934)"/>
<rect x="31.8002" y="13.352" width="5.34044" height="10.1954" rx="1.69923" transform="rotate(-180 31.8002 13.352)" stroke="#545454" stroke-width="0.485494"/>
<path d="M31.5586 10.1953L26.7036 10.1953" stroke="#545454" stroke-width="0.485494"/>
<path d="M31.8008 6.79688L26.7031 6.79687" stroke="#545454" stroke-width="0.485494"/>
<path d="M20.3906 0.364258V25.4886" stroke="#545454" stroke-width="0.728242"/>
<path d="M9.21128 11.9086C9.35348 12.0508 9.58402 12.0508 9.72622 11.9086L12.0435 9.59138C12.1857 9.44919 12.1857 9.21864 12.0435 9.07644C11.9013 8.93424 11.6707 8.93424 11.5285 9.07644L9.46875 11.1362L7.40897 9.07644C7.26677 8.93424 7.03623 8.93424 6.89403 9.07644C6.75183 9.21864 6.75183 9.44919 6.89403 9.59138L9.21128 11.9086ZM9.10463 0.727539V11.6512H9.83287V0.727539H9.10463Z" fill="#545454"/>
<path d="M0 0.364258V25.4886" stroke="#545454" stroke-width="1.45648"/>
<path d="M40.0547 0.364258V25.4886" stroke="#545454" stroke-width="1.45648"/>
</g>
<defs>
<clipPath id="clip0_107_10934">
<rect width="40" height="40" fill="white"/>
</clipPath>
</defs>
</svg>
