<svg width="40" height="40" viewBox="0 0 40 40" fill="none" xmlns="http://www.w3.org/2000/svg">
<path d="M0.921875 19.9989V8.6143C11.1783 8.3066 32.0603 8.61429 33.5373 8.61429C35.0142 8.61429 36.8193 11.0758 37.5373 12.3066L38.4603 13.8451L38.1526 25.5374C37.7424 27.281 33.6603 31.1374 20.6142 32.6143C7.56803 34.0912 5.33213 31.9989 5.84495 30.7681C5.5988 24.122 2.46034 20.8194 0.921875 19.9989Z" stroke="#545454" stroke-width="0.615385"/>
<path d="M0.921875 11.6926L9.84495 14.4619L19.6911 16.0003C19.7937 15.385 20.1834 14.1542 20.9219 14.1542C21.845 14.1542 23.6911 14.1542 24.3065 14.1542C24.9219 14.1542 22.1526 12.9234 27.0757 13.5388C27.2809 13.1285 28.5526 12.4311 31.9988 12.9234C31.7937 12.7183 32.3065 12.308 35.9988 12.308L31.9988 8.61572" stroke="#545454" stroke-width="0.615385"/>
<path d="M8.92188 8.61572C11.5885 9.23111 17.7219 11.1388 20.9219 13.8465" stroke="#545454" stroke-width="0.615385"/>
<path d="M5.23047 13.2314C5.33303 14.1545 6.27662 16.2468 9.23047 17.2314" stroke="#545454" stroke-width="0.615385"/>
<path d="M10.1523 14.4619C10.2549 15.2824 10.7677 16.9235 11.9985 16.9235C13.2293 16.9235 14.7677 16.9235 15.3831 16.9235C16.6139 16.7183 19.3216 16.6773 20.3062 18.1542C21.2908 19.6311 21.537 23.4876 21.537 25.2311C21.9472 25.4363 22.8908 25.7235 23.3831 25.2311C23.9985 24.6158 24.9216 26.1542 25.2293 25.2311C25.537 24.3081 27.0754 24.9235 27.3831 24.3081C27.6908 23.6927 28.9216 24.9235 29.8447 24.3081C30.7677 23.6927 30.46 23.385 31.6908 23.385C32.9216 23.385 32.6139 22.7696 33.2293 22.7696C33.8447 22.7696 34.7677 23.385 35.3831 22.7696C35.8754 22.2773 36.6139 21.9491 36.9216 21.8465H38.1523" stroke="#545454" stroke-width="0.615385"/>
<path d="M11.6914 17.8459C13.8453 17.7434 18.2145 17.7844 18.4606 18.769C18.7068 19.7536 18.7683 26.5639 18.7683 29.8459C19.2812 30.1536 20.3683 30.769 20.6145 30.769C20.9222 30.769 21.5376 32.3075 22.1529 32.3075" stroke="#545454" stroke-width="0.615385"/>
<rect x="8.61328" y="16.6152" width="3.69231" height="2.46154" rx="0.615385" fill="#545454"/>
<path d="M20 15.9994H22.4615C22.9744 15.7943 24.3077 15.384 25.5385 15.384C27.0769 15.384 26.4615 14.461 27.3846 14.7687C28.3077 15.0764 30.4615 14.7687 31.3846 14.7687C32.3077 14.7687 32.6154 13.8456 33.8462 14.1533C35.0769 14.461 35.6923 13.8456 36 13.5379C36.2462 13.2917 36.3077 12.6148 36.3077 12.3071" stroke="#545454" stroke-width="0.615385"/>
<path d="M19.6914 17.2314H22.4781C23.0586 17.0262 24.568 16.616 25.9614 16.616C27.703 16.616 27.0064 15.6929 28.0513 16.0006C29.0963 16.3083 31.5347 16.0006 32.5797 16.0006C33.6246 16.0006 33.973 15.0775 35.3663 15.3852C36.7596 15.6929 37.4563 15.0775 37.8046 14.7698C38.0833 14.5237 38.1529 13.8468 38.1529 13.5391" stroke="#545454" stroke-width="0.615385"/>
<path d="M20.3086 18.4618H22.9095C23.4513 18.2567 24.8601 17.8465 26.1606 17.8465C27.7861 17.8465 27.1359 16.9234 28.1112 17.2311C29.0865 17.5388 31.3623 17.2311 32.3376 17.2311C33.3129 17.2311 33.6381 16.308 34.9385 16.6157C36.2389 16.9234 36.8891 16.308 37.2143 16.0003C37.4743 15.7541 37.5394 15.0772 37.5394 14.7695" stroke="#545454" stroke-width="0.615385"/>
<path d="M20.9219 19.6923H23.5227C24.0646 19.4872 25.4734 19.0769 26.7738 19.0769C28.3994 19.0769 27.7492 18.1538 28.7245 18.4615C29.6998 18.7692 31.9756 18.4615 32.9509 18.4615C33.9262 18.4615 34.2513 17.5385 35.5518 17.8461C36.8522 18.1538 37.5024 17.5385 37.8275 17.2308C38.0876 16.9846 38.1526 16.3077 38.1526 16" stroke="#545454" stroke-width="0.615385"/>
<path d="M20.9219 20.9228H23.5227C24.0646 20.7176 25.4734 20.3074 26.7738 20.3074C28.3994 20.3074 27.7492 19.3843 28.7245 19.692C29.6998 19.9997 31.9756 19.692 32.9509 19.692C33.9262 19.692 34.2513 18.7689 35.5518 19.0766C36.8522 19.3843 37.5024 18.7689 37.8275 18.4612C38.0876 18.2151 38.1526 17.5382 38.1526 17.2305" stroke="#545454" stroke-width="0.615385"/>
<path d="M21.5391 22.1542H24.047C24.5695 21.9491 25.928 21.5388 27.182 21.5388C28.7495 21.5388 28.1225 20.6158 29.063 20.9235C30.0035 21.2311 32.198 20.9235 33.1385 20.9235C34.079 20.9235 34.3925 20.0004 35.6465 20.3081C36.9005 20.6158 37.5275 20.0004 37.841 19.6927C38.0917 19.4465 38.1544 18.7696 38.1544 18.4619" stroke="#545454" stroke-width="0.615385"/>
<path d="M21.5391 23.3847H24.047C24.5695 23.1796 25.928 22.7693 27.182 22.7693C28.7495 22.7693 28.1225 21.8462 29.063 22.1539C30.0035 22.4616 32.198 22.1539 33.1385 22.1539C34.079 22.1539 34.3925 21.2308 35.6465 21.5385C36.9005 21.8462 37.5275 21.2308 37.841 20.9232C38.0917 20.677 38.1544 20.0001 38.1544 19.6924" stroke="#545454" stroke-width="0.615385"/>
<path d="M33.5284 16.9923C33.5352 17.0618 33.5135 17.154 33.4221 17.2709C33.3293 17.3895 33.1763 17.5171 32.96 17.6395C32.5283 17.8839 31.8963 18.0784 31.1678 18.1492C30.4392 18.2201 29.7816 18.1509 29.3109 17.9942C29.0751 17.9157 28.9003 17.82 28.7865 17.7215C28.6743 17.6245 28.6352 17.5382 28.6285 17.4687C28.6217 17.3992 28.6434 17.307 28.7348 17.1901C28.8276 17.0715 28.9806 16.9439 29.1969 16.8215C29.6286 16.5771 30.2606 16.3826 30.9891 16.3118C31.7177 16.2409 32.3753 16.3101 32.846 16.4668C33.0818 16.5453 33.2566 16.641 33.3704 16.7395C33.4826 16.8365 33.5217 16.9228 33.5284 16.9923Z" fill="white" stroke="#545454" stroke-width="0.615385"/>
<path d="M8.61328 24.0001V19.6924H15.3825V25.5385C15.3825 26.277 14.1517 27.077 13.5364 27.3847C11.6902 27.4873 8.18251 27.4462 8.92097 26.4616C9.65944 25.477 9.02354 24.4103 8.61328 24.0001Z" stroke="#545454" stroke-width="0.615385"/>
<path d="M10.1523 20V26.1538" stroke="#545454" stroke-width="0.615385"/>
<path d="M11.6914 27.3843V21.2305C12.2042 20.7177 13.2299 19.9382 13.2299 20.9228C13.2299 22.1536 14.7683 25.2305 13.5376 25.2305" stroke="#545454" stroke-width="0.615385"/>
<path d="M19.0781 28.3075C20.1038 28.41 22.155 28.4305 22.155 27.6921C22.155 26.9536 24.2063 27.1793 25.232 27.3844L26.4627 26.769V24.9229" stroke="#545454" stroke-width="0.615385"/>
<path d="M20.6172 30.154C20.8223 29.7437 21.4787 29.0463 22.4633 29.5386C23.6941 30.154 24.6172 28.3078 25.2326 28.6155C25.848 28.9232 26.1556 28.9232 26.4633 28.6155C26.771 28.3078 28.0018 26.7694 28.6172 26.7694C29.2326 26.7694 30.771 27.6925 30.771 26.7694C30.771 25.8463 31.3864 26.154 32.0018 25.8463C32.6172 25.5386 33.5403 25.8463 34.1556 25.2309C34.771 24.6155 35.0787 24.6155 36.0018 24.3078C36.7403 24.0617 37.3351 23.795 37.5403 23.6925L38.1556 23.3848" stroke="#545454" stroke-width="0.615385"/>
<path d="M21.5391 31.9997C21.7334 31.5894 22.3553 30.892 23.2881 31.3843C24.454 31.9997 25.3285 30.1535 25.9115 30.4612C26.4945 30.7689 26.786 30.7689 27.0775 30.4612C27.369 30.1535 28.535 28.6151 29.118 28.6151C29.701 28.6151 31.1585 29.5382 31.1585 28.6151C31.1585 27.692 31.7415 27.9997 32.3245 27.692C32.9075 27.3843 33.782 27.692 34.365 27.0766C34.948 26.4612 35.2395 26.4612 36.114 26.1535C36.8136 25.9074 37.3771 25.6407 37.5715 25.5382L38.1544 25.2305" stroke="#545454" stroke-width="0.615385"/>
<path d="M30.1523 16.6155C30.46 17.2308 30.1523 18.1539 30.1523 18.1539C30.1523 18.1539 31.3831 17.2308 31.6908 16.6155C31.9985 16.0001 31.6908 18.1539 31.6908 18.1539" stroke="#545454" stroke-width="0.615385"/>
</svg>
