<svg width="40" height="40" viewBox="0 0 40 40" fill="none" xmlns="http://www.w3.org/2000/svg">
<g clip-path="url(#clip0_107_10762)">
<rect x="0.416667" y="0.416667" width="39.1667" height="39.1667" rx="2.91667" stroke="#002C5F" stroke-width="0.833333"/>
<mask id="path-2-inside-1_107_10762" fill="white">
<path fill-rule="evenodd" clip-rule="evenodd" d="M11.9999 11.6667C11.9999 7.98477 14.9847 5 18.6666 5H21.3333C25.0152 5 27.9999 7.98477 27.9999 11.6667V14.2507C29.1501 14.5467 30 15.5907 30 16.8333C30 17.2015 29.7015 17.5 29.3333 17.5H27.9999V31.6667C27.9999 33.5076 26.5075 35 24.6666 35H15.3333C13.4923 35 11.9999 33.5076 11.9999 31.6667V17.5H10.6667C10.2985 17.5 10 17.2015 10 16.8333C10 15.5908 10.8498 14.5468 11.9999 14.2507V11.6667Z"/>
</mask>
<path d="M27.9999 14.2507H27.1666V14.8967L27.7922 15.0577L27.9999 14.2507ZM27.9999 17.5V16.6667H27.1666V17.5H27.9999ZM11.9999 17.5H12.8333V16.6667H11.9999V17.5ZM11.9999 14.2507L12.2077 15.0577L12.8333 14.8967V14.2507H11.9999ZM18.6666 4.16667C14.5244 4.16667 11.1666 7.52453 11.1666 11.6667H12.8333C12.8333 8.44501 15.4449 5.83333 18.6666 5.83333V4.16667ZM21.3333 4.16667H18.6666V5.83333H21.3333V4.16667ZM28.8333 11.6667C28.8333 7.52453 25.4754 4.16667 21.3333 4.16667V5.83333C24.5549 5.83333 27.1666 8.44501 27.1666 11.6667H28.8333ZM28.8333 14.2507V11.6667H27.1666V14.2507H28.8333ZM30.8333 16.8333C30.8333 15.2013 29.7171 13.8321 28.2076 13.4436L27.7922 15.0577C28.5832 15.2612 29.1667 15.9802 29.1667 16.8333H30.8333ZM29.3333 18.3333C30.1618 18.3333 30.8333 17.6618 30.8333 16.8333H29.1667C29.1667 16.7413 29.2413 16.6667 29.3333 16.6667V18.3333ZM27.9999 18.3333H29.3333V16.6667H27.9999V18.3333ZM28.8333 31.6667V17.5H27.1666V31.6667H28.8333ZM24.6666 35.8333C26.9678 35.8333 28.8333 33.9679 28.8333 31.6667H27.1666C27.1666 33.0474 26.0473 34.1667 24.6666 34.1667V35.8333ZM15.3333 35.8333H24.6666V34.1667H15.3333V35.8333ZM11.1666 31.6667C11.1666 33.9679 13.0321 35.8333 15.3333 35.8333V34.1667C13.9525 34.1667 12.8333 33.0474 12.8333 31.6667H11.1666ZM11.1666 17.5V31.6667H12.8333V17.5H11.1666ZM10.6667 18.3333H11.9999V16.6667H10.6667V18.3333ZM9.16667 16.8333C9.16667 17.6618 9.83824 18.3333 10.6667 18.3333V16.6667C10.7587 16.6667 10.8333 16.7413 10.8333 16.8333H9.16667ZM11.7922 13.4437C10.2828 13.8322 9.16667 15.2014 9.16667 16.8333H10.8333C10.8333 15.9802 11.4168 15.2613 12.2077 15.0577L11.7922 13.4437ZM11.1666 11.6667V14.2507H12.8333V11.6667H11.1666Z" fill="#002C5F" mask="url(#path-2-inside-1_107_10762)"/>
<rect x="15.4167" y="12.0832" width="9.16667" height="17.5" rx="2.91667" stroke="#002C5F" stroke-width="0.833333"/>
<path d="M15.832 17.5H24.1654" stroke="#002C5F" stroke-width="0.833333"/>
<path d="M15.418 23.3335H24.168" stroke="#002C5F" stroke-width="0.833333"/>
<path d="M0.832031 1.6665L12.4987 13.3332" stroke="#002C5F" stroke-width="0.833333"/>
<path d="M39.1667 1.6665L27.5 13.3332" stroke="#002C5F" stroke-width="0.833333"/>
<path d="M0.832031 38.3332L12.4987 26.6665" stroke="#002C5F" stroke-width="0.833333"/>
<path d="M39.1667 38.3332L27.5 26.6665" stroke="#002C5F" stroke-width="0.833333"/>
</g>
<defs>
<clipPath id="clip0_107_10762">
<rect width="40" height="40" fill="white"/>
</clipPath>
</defs>
</svg>
