<svg width="40" height="40" viewBox="0 0 40 40" fill="none" xmlns="http://www.w3.org/2000/svg">
<mask id="path-1-inside-1_107_10831" fill="white">
<path fill-rule="evenodd" clip-rule="evenodd" d="M32.5366 1.32353C32.1021 0.508873 31.254 0 30.3307 0H9.10978C8.20941 0 7.3786 0.48414 6.93471 1.26747L4.59752 5.39192H1.89714C0.976664 5.39192 0.230469 6.13812 0.230469 7.0586V7.31962C0.230469 8.24009 0.976663 8.98629 1.89714 8.98629H2.56072L1.12917 11.5125L1.129 11.5126L1.12881 11.5128V11.5132L1.1288 11.5132L1.1288 11.5132L1.12881 19.9562V23.0258V26.6667C1.12881 28.0474 2.2481 29.1667 3.62882 29.1667H4.00163C5.38234 29.1667 6.50164 28.0474 6.50164 26.6667V25.5259C6.50164 24.1451 7.62093 23.0258 9.00165 23.0258H30.0981C31.4788 23.0258 32.5981 24.1451 32.5981 25.5259V26.6667C32.5981 28.0474 33.7174 29.1667 35.0981 29.1667H35.4709C36.8516 29.1667 37.9709 28.0474 37.9709 26.6667V23.0259L37.971 23.0258L37.9711 23.0258V11.5128L37.9709 11.5126L37.9707 11.5125L36.6234 8.98629H38.1023C39.0228 8.98629 39.769 8.2401 39.769 7.31962V7.0586C39.769 6.13812 39.0228 5.39192 38.1023 5.39192H35.1455C35.0034 5.39192 34.8654 5.40972 34.7337 5.44319L32.5366 1.32353Z"/>
</mask>
<path d="M32.5366 1.32353L31.8013 1.71569V1.71569L32.5366 1.32353ZM6.93471 1.26747L7.65973 1.67832V1.67832L6.93471 1.26747ZM4.59752 5.39192V6.22526H5.08313L5.32255 5.80277L4.59752 5.39192ZM2.56072 8.98629L3.28574 9.39714L3.99077 8.15295H2.56072V8.98629ZM1.12917 11.5125L1.5472 12.2334L1.74275 12.1201L1.85419 11.9234L1.12917 11.5125ZM1.129 11.5126L0.710971 10.7917L0.616812 10.8463L0.539835 10.9233L1.129 11.5126ZM1.12881 11.5128L0.539641 10.9235L0.295472 11.1676V11.5128H1.12881ZM1.12881 11.5132L1.93317 11.731L1.96215 11.624V11.5132H1.12881ZM1.1288 11.5132L0.324442 11.2953L0.323843 11.2976L1.1288 11.5132ZM1.1288 11.5132L0.323838 11.2976L0.295461 11.4035L0.295461 11.5132L1.1288 11.5132ZM1.12881 19.9562H1.96215V19.9562L1.12881 19.9562ZM37.9709 23.0259L37.3736 22.4448L37.1376 22.6874V23.0259H37.9709ZM37.971 23.0258L37.3896 22.4288L37.3816 22.4366L37.3737 22.4447L37.971 23.0258ZM37.9711 23.0258L38.5524 23.6228L38.8044 23.3775V23.0258H37.9711ZM37.9711 11.5128H38.8044V11.1689L38.5618 10.925L37.9711 11.5128ZM37.9709 11.5126L38.5616 10.9248L38.4868 10.8497L38.3956 10.7957L37.9709 11.5126ZM37.9707 11.5125L37.2354 11.9047L37.3452 12.1106L37.546 12.2295L37.9707 11.5125ZM36.6234 8.98629V8.15295H35.2345L35.8881 9.37845L36.6234 8.98629ZM34.7337 5.44319L33.9984 5.83535L34.3058 6.41178L34.939 6.25085L34.7337 5.44319ZM30.3307 0.833337C30.9462 0.833337 31.5116 1.17259 31.8013 1.71569L33.2719 0.931378C32.6925 -0.15484 31.5617 -0.833337 30.3307 -0.833337V0.833337ZM9.10978 0.833337H30.3307V-0.833337H9.10978V0.833337ZM7.65973 1.67832C7.95566 1.1561 8.50953 0.833337 9.10978 0.833337V-0.833337C7.90929 -0.833337 6.80154 -0.187817 6.20969 0.856629L7.65973 1.67832ZM5.32255 5.80277L7.65973 1.67832L6.20969 0.856629L3.8725 4.98108L5.32255 5.80277ZM1.89714 6.22526H4.59752V4.55859H1.89714V6.22526ZM1.06381 7.0586C1.06381 6.59836 1.4369 6.22526 1.89714 6.22526V4.55859C0.516425 4.55859 -0.602868 5.67788 -0.602868 7.0586H1.06381ZM1.06381 7.31962V7.0586H-0.602868V7.31962H1.06381ZM1.89714 8.15295C1.4369 8.15295 1.06381 7.77986 1.06381 7.31962H-0.602868C-0.602868 8.70033 0.516422 9.81963 1.89714 9.81963V8.15295ZM2.56072 8.15295H1.89714V9.81963H2.56072V8.15295ZM1.85419 11.9234L3.28574 9.39714L1.83569 8.57544L0.404151 11.1017L1.85419 11.9234ZM1.54703 12.2335L1.5472 12.2334L0.711141 10.7916L0.710971 10.7917L1.54703 12.2335ZM1.71798 12.1022L1.71817 12.102L0.539835 10.9233L0.539641 10.9235L1.71798 12.1022ZM1.96215 11.5132V11.5128H0.295472V11.5132H1.96215ZM1.93316 11.731L1.93317 11.731L0.32445 11.2953L0.324445 11.2953L1.93316 11.731ZM1.93376 11.7288L1.93376 11.7288L0.323843 11.2976L0.323838 11.2976L1.93376 11.7288ZM1.96215 19.9562L1.96213 11.5132L0.295461 11.5132L0.295472 19.9562L1.96215 19.9562ZM1.96215 23.0258V19.9562H0.295472V23.0258H1.96215ZM1.96215 26.6667V23.0258H0.295472V26.6667H1.96215ZM3.62882 28.3334C2.70834 28.3334 1.96215 27.5872 1.96215 26.6667H0.295472C0.295472 28.5077 1.78786 30.0001 3.62882 30.0001V28.3334ZM4.00163 28.3334H3.62882V30.0001H4.00163V28.3334ZM5.6683 26.6667C5.6683 27.5872 4.9221 28.3334 4.00163 28.3334V30.0001C5.84258 30.0001 7.33497 28.5077 7.33497 26.6667H5.6683ZM5.6683 25.5259V26.6667H7.33497V25.5259H5.6683ZM9.00165 22.1925C7.16069 22.1925 5.6683 23.6849 5.6683 25.5259H7.33497C7.33497 24.6054 8.08117 23.8592 9.00165 23.8592V22.1925ZM30.0981 22.1925H9.00165V23.8592H30.0981V22.1925ZM33.4314 25.5259C33.4314 23.6849 31.939 22.1925 30.0981 22.1925V23.8592C31.0186 23.8592 31.7648 24.6054 31.7648 25.5259H33.4314ZM33.4314 26.6667V25.5259H31.7648V26.6667H33.4314ZM35.0981 28.3334C34.1776 28.3334 33.4314 27.5872 33.4314 26.6667H31.7648C31.7648 28.5077 33.2571 30.0001 35.0981 30.0001V28.3334ZM35.4709 28.3334H35.0981V30.0001H35.4709V28.3334ZM37.1376 26.6667C37.1376 27.5872 36.3914 28.3334 35.4709 28.3334V30.0001C37.3119 30.0001 38.8043 28.5077 38.8043 26.6667H37.1376ZM37.1376 23.0259V26.6667H38.8043V23.0259H37.1376ZM37.3737 22.4447L37.3736 22.4448L38.5682 23.607L38.5683 23.607L37.3737 22.4447ZM37.3897 22.4287L37.3896 22.4288L38.5523 23.6229L38.5524 23.6228L37.3897 22.4287ZM37.1377 11.5128V23.0258H38.8044V11.5128H37.1377ZM37.3802 12.1005L37.3804 12.1007L38.5618 10.925L38.5616 10.9248L37.3802 12.1005ZM37.546 12.2295L37.5461 12.2296L38.3956 10.7957L38.3954 10.7956L37.546 12.2295ZM35.8881 9.37845L37.2354 11.9047L38.706 11.1204L37.3587 8.59413L35.8881 9.37845ZM38.1023 8.15295H36.6234V9.81963H38.1023V8.15295ZM38.9357 7.31962C38.9357 7.77985 38.5626 8.15295 38.1023 8.15295V9.81963C39.4831 9.81963 40.6024 8.70034 40.6024 7.31962H38.9357ZM38.9357 7.0586V7.31962H40.6024V7.0586H38.9357ZM38.1023 6.22526C38.5626 6.22526 38.9357 6.59836 38.9357 7.0586H40.6024C40.6024 5.67788 39.4831 4.55859 38.1023 4.55859V6.22526ZM35.1455 6.22526H38.1023V4.55859H35.1455V6.22526ZM34.939 6.25085C35.0042 6.23429 35.0732 6.22526 35.1455 6.22526V4.55859C34.9336 4.55859 34.7267 4.58515 34.5284 4.63554L34.939 6.25085ZM31.8013 1.71569L33.9984 5.83535L35.469 5.05104L33.2719 0.931377L31.8013 1.71569Z" fill="#545454" mask="url(#path-1-inside-1_107_10831)"/>
<path d="M9.36357 3.56768C9.58268 3.16634 10.0034 2.91667 10.4607 2.91667H28.7035C29.1607 2.91667 29.5815 3.16634 29.8006 3.56768L31.6205 6.90103C32.0752 7.73401 31.4724 8.75002 30.5233 8.75002H8.64085C7.69181 8.75002 7.08893 7.73401 7.54371 6.90103L9.36357 3.56768Z" stroke="#545454" stroke-width="0.833337"/>
<path d="M13.8713 25.6116C13.9475 25.4903 14.0807 25.4167 14.224 25.4167H24.9453C25.0886 25.4167 25.2218 25.4903 25.2981 25.6116L26.3459 27.2782C26.5203 27.5557 26.3209 27.9167 25.9931 27.9167H13.1762C12.8484 27.9167 12.649 27.5557 12.8235 27.2782L13.8713 25.6116Z" fill="#545454" stroke="#545454" stroke-width="0.833337"/>
<path d="M12.7231 29.7407C12.8022 29.6412 12.9223 29.5832 13.0494 29.5832H26.9506C27.0777 29.5832 27.1979 29.6412 27.2769 29.7407L28.6005 31.4074C28.8173 31.6805 28.6229 32.0832 28.2742 32.0832H11.7259C11.3772 32.0832 11.1828 31.6805 11.3996 31.4074L12.7231 29.7407Z" fill="#545454" stroke="#545454" stroke-width="0.833337"/>
<path d="M10.9092 33.9369C10.9863 33.8203 11.1168 33.7502 11.2566 33.7502H28.7434C28.8833 33.7502 29.0138 33.8203 29.0909 33.9369L31.2968 37.2702C31.4801 37.5472 31.2815 37.9168 30.9493 37.9168H9.05076C8.71861 37.9168 8.51998 37.5472 8.70329 37.2702L10.9092 33.9369Z" fill="#545454" stroke="#545454" stroke-width="0.833337"/>
</svg>
