<svg width="57" height="40" viewBox="0 0 57 40" fill="none" xmlns="http://www.w3.org/2000/svg">
<circle cx="42.9167" cy="21.2502" r="5" stroke="#002C5F" stroke-width="0.833333"/>
<circle cx="13.7487" cy="21.2502" r="5" stroke="#002C5F" stroke-width="0.833333"/>
<mask id="path-3-inside-1_107_10777" fill="white">
<path d="M9.9987 27.4998C9.9987 28.1688 9.7974 28.8223 9.42098 29.3754C9.04457 29.9284 8.51045 30.3554 7.8881 30.6008C7.26574 30.8462 6.58395 30.8987 5.93138 30.7514C5.27881 30.604 4.68566 30.2638 4.22908 29.7748C3.77249 29.2859 3.4736 28.6709 3.37126 28.0097C3.26893 27.3486 3.36789 26.672 3.65527 26.0679C3.94266 25.4638 4.40518 24.9601 4.98267 24.6224C5.56016 24.2847 6.22591 24.1286 6.89333 24.1743L6.84112 24.936C6.32656 24.9007 5.81329 25.0211 5.36807 25.2814C4.92284 25.5418 4.56626 25.9301 4.34469 26.3959C4.12313 26.8616 4.04683 27.3833 4.12573 27.8929C4.20463 28.4026 4.43506 28.8768 4.78707 29.2538C5.13908 29.6307 5.59638 29.8931 6.09949 30.0066C6.60259 30.1202 7.12823 30.0798 7.60805 29.8906C8.08786 29.7014 8.49965 29.3722 8.78985 28.9458C9.08005 28.5194 9.23524 28.0156 9.23524 27.4998H9.9987Z"/>
</mask>
<path d="M9.9987 27.4998C9.9987 28.1688 9.7974 28.8223 9.42098 29.3754C9.04457 29.9284 8.51045 30.3554 7.8881 30.6008C7.26574 30.8462 6.58395 30.8987 5.93138 30.7514C5.27881 30.604 4.68566 30.2638 4.22908 29.7748C3.77249 29.2859 3.4736 28.6709 3.37126 28.0097C3.26893 27.3486 3.36789 26.672 3.65527 26.0679C3.94266 25.4638 4.40518 24.9601 4.98267 24.6224C5.56016 24.2847 6.22591 24.1286 6.89333 24.1743L6.84112 24.936C6.32656 24.9007 5.81329 25.0211 5.36807 25.2814C4.92284 25.5418 4.56626 25.9301 4.34469 26.3959C4.12313 26.8616 4.04683 27.3833 4.12573 27.8929C4.20463 28.4026 4.43506 28.8768 4.78707 29.2538C5.13908 29.6307 5.59638 29.8931 6.09949 30.0066C6.60259 30.1202 7.12823 30.0798 7.60805 29.8906C8.08786 29.7014 8.49965 29.3722 8.78985 28.9458C9.08005 28.5194 9.23524 28.0156 9.23524 27.4998H9.9987Z" stroke="#002C5F" stroke-width="1.66667" mask="url(#path-3-inside-1_107_10777)"/>
<mask id="path-4-inside-2_107_10777" fill="white">
<path d="M46.6654 27.4998C46.6654 28.1688 46.8667 28.8223 47.2431 29.3754C47.6195 29.9284 48.1536 30.3554 48.776 30.6008C49.3983 30.8462 50.0801 30.8987 50.7327 30.7514C51.3853 30.604 51.9784 30.2638 52.435 29.7748C52.8916 29.2859 53.1905 28.6709 53.2928 28.0097C53.3951 27.3486 53.2962 26.672 53.0088 26.0679C52.7214 25.4638 52.2589 24.9601 51.6814 24.6224C51.1039 24.2847 50.4382 24.1286 49.7707 24.1743L49.8229 24.936C50.3375 24.9007 50.8508 25.0211 51.296 25.2814C51.7412 25.5418 52.0978 25.9301 52.3194 26.3959C52.5409 26.8616 52.6172 27.3833 52.5383 27.8929C52.4594 28.4026 52.229 28.8768 51.877 29.2538C51.525 29.6307 51.0677 29.8931 50.5646 30.0066C50.0615 30.1202 49.5358 30.0798 49.056 29.8906C48.5762 29.7014 48.1644 29.3722 47.8742 28.9458C47.584 28.5194 47.4288 28.0156 47.4288 27.4998H46.6654Z"/>
</mask>
<path d="M46.6654 27.4998C46.6654 28.1688 46.8667 28.8223 47.2431 29.3754C47.6195 29.9284 48.1536 30.3554 48.776 30.6008C49.3983 30.8462 50.0801 30.8987 50.7327 30.7514C51.3853 30.604 51.9784 30.2638 52.435 29.7748C52.8916 29.2859 53.1905 28.6709 53.2928 28.0097C53.3951 27.3486 53.2962 26.672 53.0088 26.0679C52.7214 25.4638 52.2589 24.9601 51.6814 24.6224C51.1039 24.2847 50.4382 24.1286 49.7707 24.1743L49.8229 24.936C50.3375 24.9007 50.8508 25.0211 51.296 25.2814C51.7412 25.5418 52.0978 25.9301 52.3194 26.3959C52.5409 26.8616 52.6172 27.3833 52.5383 27.8929C52.4594 28.4026 52.229 28.8768 51.877 29.2538C51.525 29.6307 51.0677 29.8931 50.5646 30.0066C50.0615 30.1202 49.5358 30.0798 49.056 29.8906C48.5762 29.7014 48.1644 29.3722 47.8742 28.9458C47.584 28.5194 47.4288 28.0156 47.4288 27.4998H46.6654Z" stroke="#002C5F" stroke-width="1.66667" mask="url(#path-4-inside-2_107_10777)"/>
<circle cx="6.66667" cy="27.5002" r="1.25" stroke="#002C5F" stroke-width="0.833333"/>
<circle cx="1.66667" cy="1.66667" r="1.25" transform="matrix(-1 0 0 1 51.668 25.8335)" stroke="#002C5F" stroke-width="0.833333"/>
<path d="M3.96553 18.4969C4.42185 16.476 4.75854 14.9867 5.13069 13.8245C5.50076 12.6689 5.89625 11.8698 6.45281 11.2211C7.03051 10.5478 7.72954 9.98899 8.51355 9.57379C9.26889 9.17377 10.1355 8.964 11.3443 8.85757C12.5598 8.75054 14.0868 8.75016 16.1585 8.75016H40.2524C42.2942 8.75016 43.799 8.75053 44.998 8.85518C46.1903 8.95925 47.0466 9.16435 47.7952 9.55557C48.5726 9.96175 49.2677 10.5088 49.8453 11.1688C50.4016 11.8045 50.8023 12.5885 51.1838 13.7229C51.5675 14.8637 51.9217 16.3262 52.4018 18.3108C53.1426 21.3726 53.6899 23.6371 53.9275 25.427C54.1644 27.2121 54.0839 28.4667 53.6162 29.5265C53.1349 30.6172 52.3861 31.5688 51.4391 32.2931C50.519 32.9969 49.3185 33.3702 47.5278 33.5596C45.7322 33.7496 43.4026 33.7502 40.2524 33.7502H16.1586C13.0518 33.7502 10.7546 33.7496 8.98193 33.5627C7.21421 33.3764 6.02598 33.0093 5.11016 32.3168C4.16735 31.6039 3.41794 30.6663 2.9302 29.5897C2.45642 28.5438 2.36003 27.3039 2.56762 25.5385C2.77579 23.7682 3.28124 21.5273 3.96553 18.4969Z" stroke="#002C5F" stroke-width="0.833333"/>
<mask id="path-8-inside-3_107_10777" fill="white">
<path d="M21.4057 19.2391C20.9896 17.6549 20.0924 16.2388 18.8378 15.186C17.5832 14.1331 16.0329 13.4952 14.4006 13.3604C12.7683 13.2255 11.1343 13.6002 9.72391 14.4329C8.3135 15.2656 7.19607 16.5153 6.52564 18.0096C5.85521 19.504 5.66478 21.1695 5.9806 22.7767C6.29641 24.3838 7.10293 25.8534 8.28898 26.983C9.47504 28.1125 10.9822 28.8464 12.6029 29.0835C14.2235 29.3205 15.8777 29.0491 17.3376 28.3066L16.9409 27.5266C15.6424 28.187 14.171 28.4285 12.7295 28.2176C11.288 28.0068 9.94743 27.354 8.89247 26.3493C7.83752 25.3446 7.12015 24.0374 6.83925 22.6079C6.55834 21.1784 6.72772 19.697 7.32404 18.3678C7.92037 17.0386 8.91428 15.9271 10.1688 15.1865C11.4233 14.4458 12.8766 14.1125 14.3285 14.2325C15.7804 14.3524 17.1593 14.9198 18.2753 15.8563C19.3912 16.7928 20.1892 18.0523 20.5593 19.4614L21.4057 19.2391Z"/>
</mask>
<path d="M21.4057 19.2391C20.9896 17.6549 20.0924 16.2388 18.8378 15.186C17.5832 14.1331 16.0329 13.4952 14.4006 13.3604C12.7683 13.2255 11.1343 13.6002 9.72391 14.4329C8.3135 15.2656 7.19607 16.5153 6.52564 18.0096C5.85521 19.504 5.66478 21.1695 5.9806 22.7767C6.29641 24.3838 7.10293 25.8534 8.28898 26.983C9.47504 28.1125 10.9822 28.8464 12.6029 29.0835C14.2235 29.3205 15.8777 29.0491 17.3376 28.3066L16.9409 27.5266C15.6424 28.187 14.171 28.4285 12.7295 28.2176C11.288 28.0068 9.94743 27.354 8.89247 26.3493C7.83752 25.3446 7.12015 24.0374 6.83925 22.6079C6.55834 21.1784 6.72772 19.697 7.32404 18.3678C7.92037 17.0386 8.91428 15.9271 10.1688 15.1865C11.4233 14.4458 12.8766 14.1125 14.3285 14.2325C15.7804 14.3524 17.1593 14.9198 18.2753 15.8563C19.3912 16.7928 20.1892 18.0523 20.5593 19.4614L21.4057 19.2391Z" stroke="#002C5F" stroke-width="1.66667" mask="url(#path-8-inside-3_107_10777)"/>
<mask id="path-9-inside-4_107_10777" fill="white">
<path d="M35.2584 19.2391C35.6745 17.6549 36.5716 16.2388 37.8263 15.186C39.0809 14.1331 40.6312 13.4952 42.2635 13.3604C43.8958 13.2255 45.5297 13.6002 46.9402 14.4329C48.3506 15.2656 49.468 16.5153 50.1384 18.0096C50.8089 19.504 50.9993 21.1695 50.6835 22.7767C50.3677 24.3838 49.5611 25.8534 48.3751 26.983C47.189 28.1125 45.6818 28.8464 44.0612 29.0835C42.4406 29.3205 40.7863 29.0491 39.3264 28.3066L39.7231 27.5266C41.0216 28.187 42.4931 28.4285 43.9345 28.2176C45.376 28.0068 46.7166 27.354 47.7716 26.3493C48.8265 25.3446 49.5439 24.0374 49.8248 22.6079C50.1057 21.1784 49.9363 19.697 49.34 18.3678C48.7437 17.0386 47.7498 15.9271 46.4953 15.1865C45.2408 14.4458 43.7874 14.1125 42.3355 14.2325C40.8837 14.3524 39.5047 14.9198 38.3888 15.8563C37.2728 16.7928 36.4748 18.0523 36.1048 19.4614L35.2584 19.2391Z"/>
</mask>
<path d="M35.2584 19.2391C35.6745 17.6549 36.5716 16.2388 37.8263 15.186C39.0809 14.1331 40.6312 13.4952 42.2635 13.3604C43.8958 13.2255 45.5297 13.6002 46.9402 14.4329C48.3506 15.2656 49.468 16.5153 50.1384 18.0096C50.8089 19.504 50.9993 21.1695 50.6835 22.7767C50.3677 24.3838 49.5611 25.8534 48.3751 26.983C47.189 28.1125 45.6818 28.8464 44.0612 29.0835C42.4406 29.3205 40.7863 29.0491 39.3264 28.3066L39.7231 27.5266C41.0216 28.187 42.4931 28.4285 43.9345 28.2176C45.376 28.0068 46.7166 27.354 47.7716 26.3493C48.8265 25.3446 49.5439 24.0374 49.8248 22.6079C50.1057 21.1784 49.9363 19.697 49.34 18.3678C48.7437 17.0386 47.7498 15.9271 46.4953 15.1865C45.2408 14.4458 43.7874 14.1125 42.3355 14.2325C40.8837 14.3524 39.5047 14.9198 38.3888 15.8563C37.2728 16.7928 36.4748 18.0523 36.1048 19.4614L35.2584 19.2391Z" stroke="#002C5F" stroke-width="1.66667" mask="url(#path-9-inside-4_107_10777)"/>
<circle cx="13.7487" cy="21.2502" r="2.5" stroke="#002C5F" stroke-width="0.833333"/>
<circle cx="42.9167" cy="21.2502" r="2.5" stroke="#002C5F" stroke-width="0.833333"/>
<path d="M20 15H36.6667" stroke="#002C5F" stroke-width="0.833333"/>
<path d="M17.5 31.2502L18.4344 30.3157C18.9033 29.8469 19.5392 29.5835 20.2022 29.5835H36.8811C37.5442 29.5835 38.1801 29.8469 38.6489 30.3157L39.5833 31.2502" stroke="#002C5F" stroke-width="0.833333"/>
<path d="M9.9987 17.5002L8.33203 15.8335" stroke="#002C5F" stroke-width="0.833333"/>
<path d="M46.6654 17.5002L48.332 15.8335" stroke="#002C5F" stroke-width="0.833333"/>
<path fill-rule="evenodd" clip-rule="evenodd" d="M42.9958 18.7409C41.7194 18.8302 40.4121 18.2854 39.6328 16.8676L40.3631 16.4662C40.9727 17.5753 41.9571 17.9782 42.9376 17.9096C43.9405 17.8394 44.932 17.2736 45.4835 16.4375L46.1791 16.8963C45.4806 17.9554 44.2499 18.6531 42.9958 18.7409Z" fill="#002C5F"/>
<path fill-rule="evenodd" clip-rule="evenodd" d="M13.8317 18.7409C12.5553 18.8302 11.248 18.2854 10.4688 16.8676L11.199 16.4662C11.8086 17.5753 12.7931 17.9782 13.7736 17.9096C14.7764 17.8394 15.768 17.2736 16.3194 16.4375L17.0151 16.8963C16.3165 17.9554 15.0858 18.6531 13.8317 18.7409Z" fill="#002C5F"/>
<path fill-rule="evenodd" clip-rule="evenodd" d="M42.9958 23.7591C41.7194 23.6698 40.4121 24.2146 39.6328 25.6324L40.3631 26.0338C40.9727 24.9247 41.9571 24.5218 42.9376 24.5904C43.9405 24.6606 44.932 25.2264 45.4835 26.0625L46.1791 25.6037C45.4806 24.5446 44.2499 23.8469 42.9958 23.7591Z" fill="#002C5F"/>
<path fill-rule="evenodd" clip-rule="evenodd" d="M13.8317 23.7591C12.5553 23.6698 11.248 24.2146 10.4688 25.6324L11.199 26.0338C11.8086 24.9247 12.7931 24.5218 13.7736 24.5904C14.7764 24.6606 15.768 25.2264 16.3194 26.0625L17.0151 25.6037C16.3165 24.5446 15.0858 23.8469 13.8317 23.7591Z" fill="#002C5F"/>
<path fill-rule="evenodd" clip-rule="evenodd" d="M45.4271 21.1688C45.3378 22.4452 45.8825 23.7524 47.3004 24.5317L47.7018 23.8014C46.5927 23.1919 46.1898 22.2074 46.2584 21.2269C46.3286 20.224 46.8944 19.2325 47.7305 18.6811L47.2716 17.9854C46.2125 18.684 45.5149 19.9147 45.4271 21.1688Z" fill="#002C5F"/>
<path fill-rule="evenodd" clip-rule="evenodd" d="M16.2591 21.1688C16.1698 22.4452 16.7146 23.7524 18.1324 24.5317L18.5338 23.8014C17.4247 23.1919 17.0218 22.2074 17.0904 21.2269C17.1606 20.224 17.7264 19.2325 18.5625 18.6811L18.1037 17.9854C17.0446 18.684 16.3469 19.9147 16.2591 21.1688Z" fill="#002C5F"/>
<path fill-rule="evenodd" clip-rule="evenodd" d="M40.4088 21.1688C40.4981 22.4452 39.9534 23.7524 38.5356 24.5317L38.1342 23.8014C39.2433 23.1919 39.6461 22.2074 39.5775 21.2269C39.5073 20.224 38.9415 19.2325 38.1055 18.6811L38.5643 17.9854C39.6234 18.684 40.3211 19.9147 40.4088 21.1688Z" fill="#002C5F"/>
<path fill-rule="evenodd" clip-rule="evenodd" d="M11.2409 21.1688C11.3302 22.4452 10.7854 23.7524 9.36761 24.5317L8.96621 23.8014C10.0753 23.1919 10.4782 22.2074 10.4096 21.2269C10.3394 20.224 9.77358 19.2325 8.9375 18.6811L9.39632 17.9854C10.4554 18.684 11.1531 19.9147 11.2409 21.1688Z" fill="#002C5F"/>
</svg>
