<svg width="40" height="40" viewBox="0 0 40 40" fill="none" xmlns="http://www.w3.org/2000/svg">
<g clip-path="url(#clip0_107_10821)">
<path d="M0.416668 10.8337C0.416668 10.1433 0.976315 9.58366 1.66667 9.58366H29.5254C32.1043 9.58366 34.4184 11.1677 35.3517 13.5718L38.5869 21.9051C40.1773 26.0017 37.155 30.4171 32.7606 30.4171H1.66667C0.976315 30.4171 0.416668 29.8574 0.416668 29.1671V10.8337Z" stroke="#545454" stroke-width="0.833337"/>
<rect x="4.58464" y="12.9167" width="27.5001" height="15.0001" stroke="#545454" stroke-width="0.833337"/>
<path d="M6.25 26.2512L10.0885 26.5351L8.41517 23.0689L6.25 26.2512ZM30.4168 14.5845L26.5782 14.3005L28.2516 17.7668L30.4168 14.5845ZM9.09658 25.2471L27.86 16.1889L27.5702 15.5885L8.80675 24.6467L9.09658 25.2471Z" fill="#545454"/>
<path d="M19.4246 25.4305H20.2246V23.3055L19.5496 23.6655L19.3146 23.1705L20.3846 22.6005H20.8546V25.4305H21.6046V26.0005H19.4246V25.4305ZM22.1026 25.5155C22.1726 25.3822 22.2626 25.2588 22.3726 25.1455C22.486 25.0322 22.6043 24.9272 22.7276 24.8305C22.8543 24.7305 22.981 24.6355 23.1076 24.5455C23.2376 24.4521 23.3526 24.3605 23.4526 24.2705C23.556 24.1771 23.6393 24.0821 23.7026 23.9855C23.7693 23.8888 23.8026 23.7838 23.8026 23.6705C23.8026 23.5971 23.791 23.5271 23.7676 23.4605C23.7476 23.3938 23.7143 23.3355 23.6676 23.2855C23.621 23.2355 23.5593 23.1955 23.4826 23.1655C23.4093 23.1355 23.3193 23.1205 23.2126 23.1205C23.056 23.1205 22.9276 23.1605 22.8276 23.2405C22.7276 23.3205 22.6543 23.4321 22.6076 23.5755L22.1176 23.3055C22.1476 23.2188 22.191 23.1305 22.2476 23.0405C22.3076 22.9471 22.3826 22.8638 22.4726 22.7905C22.5626 22.7138 22.671 22.6521 22.7976 22.6055C22.9243 22.5555 23.0726 22.5305 23.2426 22.5305C23.4326 22.5305 23.601 22.5588 23.7476 22.6155C23.8976 22.6721 24.0226 22.7505 24.1226 22.8505C24.226 22.9505 24.3043 23.0671 24.3576 23.2005C24.411 23.3338 24.4376 23.4771 24.4376 23.6305C24.4376 23.7971 24.4076 23.9471 24.3476 24.0805C24.2876 24.2138 24.211 24.3355 24.1176 24.4455C24.0276 24.5521 23.9243 24.6505 23.8076 24.7405C23.6943 24.8272 23.581 24.9105 23.4676 24.9905C23.3576 25.0672 23.256 25.1422 23.1626 25.2155C23.0693 25.2855 22.996 25.3572 22.9426 25.4305H24.5026V26.0005H22.1026V25.5155ZM24.9807 25.4605H25.7507V26.2255H24.9807V25.4605ZM27.2845 26.0705C27.1345 26.0705 26.9962 26.0522 26.8695 26.0155C26.7429 25.9788 26.6279 25.9338 26.5245 25.8805C26.4212 25.8238 26.3295 25.7622 26.2495 25.6955C26.1729 25.6288 26.1079 25.5638 26.0545 25.5005L26.4245 25.0605C26.4679 25.1105 26.5162 25.1605 26.5695 25.2105C26.6262 25.2605 26.6895 25.3055 26.7595 25.3455C26.8295 25.3855 26.9079 25.4188 26.9945 25.4455C27.0812 25.4688 27.1779 25.4805 27.2845 25.4805C27.4945 25.4805 27.6679 25.4372 27.8045 25.3505C27.9412 25.2638 28.0095 25.1388 28.0095 24.9755C28.0095 24.8255 27.9495 24.7121 27.8295 24.6355C27.7129 24.5555 27.5345 24.5155 27.2945 24.5155H26.9595V23.9555H27.2945C27.4812 23.9555 27.6162 23.9138 27.6995 23.8305C27.7862 23.7438 27.8295 23.6438 27.8295 23.5305C27.8295 23.3938 27.7779 23.2921 27.6745 23.2255C27.5745 23.1555 27.4529 23.1205 27.3095 23.1205C27.1262 23.1205 26.9779 23.1555 26.8645 23.2255C26.7545 23.2921 26.6662 23.3721 26.5995 23.4655L26.2195 23.0655C26.2729 22.9955 26.3362 22.9288 26.4095 22.8655C26.4862 22.7988 26.5712 22.7405 26.6645 22.6905C26.7579 22.6405 26.8579 22.6021 26.9645 22.5755C27.0745 22.5455 27.1895 22.5305 27.3095 22.5305C27.6762 22.5305 27.9629 22.6138 28.1695 22.7805C28.3762 22.9471 28.4795 23.1821 28.4795 23.4855C28.4795 23.6255 28.4412 23.7571 28.3645 23.8805C28.2879 24.0038 28.1812 24.1055 28.0445 24.1855C28.2445 24.2521 28.3962 24.3605 28.4995 24.5105C28.6062 24.6571 28.6595 24.8305 28.6595 25.0305C28.6595 25.1905 28.6229 25.3355 28.5495 25.4655C28.4795 25.5922 28.3829 25.7005 28.2595 25.7905C28.1362 25.8805 27.9912 25.9505 27.8245 26.0005C27.6579 26.0472 27.4779 26.0705 27.2845 26.0705ZM29.0526 22.3005H29.8226V22.9755L29.4776 23.7605H29.1026L29.4026 23.0605H29.0526V22.3005ZM30.1276 22.3005H30.8976V22.9755L30.5526 23.7605H30.1776L30.4776 23.0605H30.1276V22.3005Z" fill="#545454"/>
</g>
<defs>
<clipPath id="clip0_107_10821">
<rect width="40.0002" height="40.0002" fill="white"/>
</clipPath>
</defs>
</svg>
