<svg width="40" height="40" viewBox="0 0 40 40" fill="none" xmlns="http://www.w3.org/2000/svg">
<g clip-path="url(#clip0_107_10827)">
<path d="M33.6218 17.3454C33.3915 17.7014 32.9964 17.9163 32.5724 17.9163L7.4249 17.9163C7.00088 17.9163 6.60578 17.7014 6.37543 17.3454L3.67934 13.1787C3.14118 12.347 3.73817 11.2496 4.72881 11.2496L35.2684 11.2496C36.2591 11.2496 36.8561 12.347 36.3179 13.1787L33.6218 17.3454Z" stroke="#545454" stroke-width="0.833337"/>
<path d="M38.8056 28.4225C38.7591 29.0768 38.2147 29.5838 37.5587 29.5838L2.83153 29.5838C2.19249 29.5838 1.65636 29.1018 1.58858 28.4664L0.610797 19.2997C0.532008 18.5611 1.11093 17.9171 1.85375 17.9171L38.2106 17.9171C38.9359 17.9171 39.5089 18.5323 39.4575 19.2558L38.8056 28.4225Z" stroke="#545454" stroke-width="0.833337"/>
<path d="M37.5277 26.8033C37.457 27.5987 36.7907 28.2085 35.9921 28.2085L4.34665 28.2085C3.57396 28.2085 2.92062 27.6365 2.8185 26.8706L2.04072 21.0372C1.91749 20.113 2.63648 19.2918 3.56887 19.2918L36.5106 19.2918C37.416 19.2918 38.1264 20.0682 38.0463 20.97L37.5277 26.8033Z" stroke="#545454" stroke-width="0.250001"/>
</g>
<defs>
<clipPath id="clip0_107_10827">
<rect width="40.0002" height="40.0002" fill="white"/>
</clipPath>
</defs>
</svg>
