<svg width="40" height="40" viewBox="0 0 40 40" fill="none" xmlns="http://www.w3.org/2000/svg">
<g clip-path="url(#clip0_107_10868)">
<path d="M0 2.18457H40.7815" stroke="#545454" stroke-width="0.728242"/>
<path d="M0 7.75241C10.9365 7.07386 34.2583 6.61244 40.0533 10.1952" stroke="#545454" stroke-width="0.728242"/>
<path d="M0.726562 25.4646C11.8374 25.6154 35.2577 25.1028 40.0516 21.8467" stroke="#545454" stroke-width="0.728242"/>
<path d="M4.36945 7.28223C3.16225 15.7203 -0.380462 33.214 0.0334346 35.6836" stroke="#545454" stroke-width="0.728242"/>
<path d="M34.957 8.73926V23.3041" stroke="#545454" stroke-width="0.728242"/>
<path d="M3.64062 12.3799L11.6513 7.28223" stroke="#545454" stroke-width="0.728242"/>
<path d="M2.91406 15.2929L16.7507 7.28223" stroke="#545454" stroke-width="0.728242"/>
<path d="M2.18359 19.6623L21.1179 7.28223" stroke="#545454" stroke-width="0.728242"/>
<path d="M1.45703 22.5753L25.489 7.28223" stroke="#545454" stroke-width="0.728242"/>
<path d="M2.18359 25.4885L29.1285 8.01074" stroke="#545454" stroke-width="0.728242"/>
<path d="M7.28125 25.1247C15.4133 19.7843 32.0415 9.03055 33.4979 8.73926" stroke="#545454" stroke-width="0.728242"/>
<path d="M12.0156 25.1245C19.1767 20.391 33.79 10.9238 34.9552 10.9238" stroke="#545454" stroke-width="0.728242"/>
<path d="M16.75 25.1245C22.2118 21.2406 33.4996 13.4727 34.956 13.4727" stroke="#545454" stroke-width="0.728242"/>
<path d="M22.5742 24.7594C26.0941 21.8464 33.4978 16.0205 34.9543 16.0205" stroke="#545454" stroke-width="0.728242"/>
<path d="M26.9453 24.3965C28.7659 22.6973 32.9169 19.2988 34.956 19.2988" stroke="#545454" stroke-width="0.728242"/>
<path d="M32.043 23.668C32.5285 23.0611 33.7907 21.7017 34.9559 21.1191" stroke="#545454" stroke-width="0.728242"/>
<path d="M3.64062 10.9234L8.01007 7.28223" stroke="#545454" stroke-width="0.728242"/>
<rect x="33.8641" y="25.8534" width="5.09769" height="2.18472" rx="0.364121" stroke="#545454" stroke-width="0.728242"/>
<path d="M34.957 9.10352L40.0547 16.3859" stroke="#545454" stroke-width="0.728242"/>
</g>
<defs>
<clipPath id="clip0_107_10868">
<rect width="40" height="40" fill="white"/>
</clipPath>
</defs>
</svg>
