<svg width="40" height="40" viewBox="0 0 40 40" fill="none" xmlns="http://www.w3.org/2000/svg">
<g clip-path="url(#clip0_107_10889)">
<path d="M7.43579 7.05833C7.50478 6.96968 7.61082 6.91783 7.72315 6.91783H13.8036C14.1067 6.91783 14.2771 7.26641 14.091 7.50557L7.85728 15.5162C7.7883 15.6049 7.68225 15.6567 7.56992 15.6567H1.48946C1.18641 15.6567 1.01598 15.3082 1.20209 15.069L7.43579 7.05833Z" stroke="#545454" stroke-width="0.728242"/>
<path d="M14.3363 7.05188C14.4054 6.96705 14.509 6.91783 14.6185 6.91783H21.0427C21.3496 6.91783 21.5189 7.27417 21.325 7.51203L14.7944 15.5227C14.7253 15.6075 14.6216 15.6567 14.5122 15.6567H8.08795C7.78106 15.6567 7.61182 15.3004 7.80572 15.0625L14.3363 7.05188Z" stroke="#545454" stroke-width="0.728242"/>
<path d="M21.2717 7.05833C21.3407 6.96968 21.4468 6.91783 21.5591 6.91783H27.6396C27.9426 6.91783 28.113 7.26641 27.9269 7.50557L21.6932 15.5162C21.6242 15.6049 21.5182 15.6567 21.4059 15.6567H15.3254C15.0224 15.6567 14.8519 15.3082 15.038 15.069L21.2717 7.05833Z" stroke="#545454" stroke-width="0.728242"/>
<path d="M12.2419 14.2411H12.941V12.3841L12.3511 12.6987L12.1457 12.2661L13.0808 11.768H13.4915V14.2411H14.147V14.7393H12.2419V14.2411Z" fill="#545454"/>
<path d="M19.3309 14.3154C19.392 14.1989 19.4707 14.0911 19.5668 13.9921C19.6659 13.893 19.7693 13.8013 19.877 13.7168C19.9877 13.6294 20.0984 13.5464 20.2091 13.4677C20.3227 13.3862 20.4232 13.3061 20.5106 13.2274C20.6009 13.1459 20.6737 13.0628 20.7291 12.9784C20.7874 12.8939 20.8165 12.8021 20.8165 12.7031C20.8165 12.639 20.8063 12.5778 20.7859 12.5196C20.7684 12.4613 20.7393 12.4103 20.6985 12.3666C20.6577 12.323 20.6038 12.288 20.5368 12.2618C20.4728 12.2356 20.3941 12.2225 20.3009 12.2225C20.164 12.2225 20.0518 12.2574 19.9644 12.3273C19.877 12.3972 19.813 12.4948 19.7722 12.6201L19.344 12.3841C19.3702 12.3084 19.4081 12.2312 19.4576 12.1525C19.51 12.071 19.5756 11.9982 19.6542 11.9341C19.7329 11.8671 19.8275 11.8132 19.9382 11.7724C20.0489 11.7287 20.1785 11.7069 20.3271 11.7069C20.4931 11.7069 20.6402 11.7316 20.7684 11.7811C20.8995 11.8307 21.0087 11.8991 21.0961 11.9865C21.1864 12.0739 21.2549 12.1758 21.3015 12.2924C21.3481 12.4089 21.3714 12.5341 21.3714 12.6681C21.3714 12.8138 21.3452 12.9449 21.2928 13.0614C21.2403 13.1779 21.1733 13.2842 21.0918 13.3804C21.0131 13.4736 20.9228 13.5595 20.8209 13.6382C20.7218 13.7139 20.6228 13.7867 20.5237 13.8566C20.4276 13.9236 20.3388 13.9892 20.2572 14.0533C20.1756 14.1144 20.1115 14.1771 20.0649 14.2411H21.4282V14.7393H19.3309V14.3154Z" fill="#545454"/>
<path d="M32.7163 12.7082L33.0525 12.8481L32.7163 12.7082ZM30.3791 31.762L30.0786 31.9676L30.3791 31.762ZM32.5262 32.447L32.6004 32.0905L32.5262 32.447ZM38.449 33.6809L38.5233 33.3244L38.449 33.6809ZM39.3128 6.54749L38.9497 6.52042L39.3128 6.54749ZM39.6759 6.57455C39.6853 6.44774 39.6901 6.3197 39.6901 6.1906H38.9619C38.9619 6.30162 38.9578 6.41161 38.9497 6.52042L39.6759 6.57455ZM39.6903 32.043V6.56138H38.962V32.043H39.6903ZM38.9617 32.0433V32.968H39.6899V32.0433H38.9617ZM38.5233 33.3244L32.6004 32.0905L32.4519 32.8034L38.3748 34.0374L38.5233 33.3244ZM32.5678 32.4071H32.7719V31.6788H32.5678V32.4071ZM30.937 32.407H32.7719V31.6787H30.937V32.407ZM32.3801 12.5683C31.2117 15.3756 29.9182 19.1435 29.2687 22.732C28.9439 24.5263 28.7779 26.2876 28.8739 27.868C28.9697 29.445 29.3281 30.8709 30.0786 31.9676L30.6796 31.5563C30.0315 30.6093 29.6922 29.3298 29.6008 27.8238C29.5095 26.3211 29.6667 24.6217 29.9853 22.8617C30.6224 19.3417 31.8961 15.6263 33.0525 12.8481L32.3801 12.5683ZM32.4079 11.0468V12.4284H33.1361V11.0468H32.4079ZM29.4948 6.1906C29.4948 8.12589 30.5733 9.80872 32.1604 10.6718L32.5083 10.032C31.1462 9.2913 30.223 7.8485 30.223 6.1906H29.4948ZM34.5925 1.09291C31.7771 1.09291 29.4948 3.37522 29.4948 6.1906H30.223C30.223 3.77742 32.1793 1.82115 34.5925 1.82115V1.09291ZM39.6901 6.1906C39.6901 3.37522 37.4078 1.09291 34.5925 1.09291V1.82115C37.0056 1.82115 38.9619 3.77742 38.9619 6.1906H39.6901ZM33.0525 12.8481C33.1083 12.7139 33.1361 12.5726 33.1361 12.4284H32.4079C32.4079 12.4777 32.3986 12.5239 32.3801 12.5683L33.0525 12.8481ZM30.937 31.6787C30.8204 31.6787 30.7284 31.6276 30.6796 31.5563L30.0786 31.9676C30.2798 32.2615 30.6111 32.407 30.937 32.407V31.6787ZM33.1361 32.0429C33.1361 31.8417 32.973 31.6787 32.7719 31.6787V32.407C32.5709 32.407 32.4079 32.244 32.4079 32.0429H33.1361ZM32.7719 32.4071C32.9729 32.4071 33.1361 32.2441 33.1361 32.0429H32.4079C32.4079 31.8417 32.5709 31.6788 32.7719 31.6788V32.4071ZM32.6004 32.0905C32.6321 32.0971 32.6729 32.1201 32.7006 32.1621C32.7249 32.1989 32.7298 32.2357 32.7269 32.2635C32.7241 32.2913 32.7118 32.3263 32.6805 32.3574C32.6447 32.3929 32.6001 32.4071 32.5678 32.4071V31.6788C31.8842 31.6788 31.7826 32.664 32.4519 32.8034L32.6004 32.0905ZM39.326 31.679C39.1248 31.679 38.9617 31.8421 38.9617 32.0433H39.6899C39.6899 32.2443 39.527 32.4073 39.326 32.4073V31.679ZM38.962 32.043C38.962 31.842 39.125 31.679 39.326 31.679V32.4073C39.5272 32.4073 39.6903 32.2442 39.6903 32.043H38.962ZM39.3195 6.91881C39.1221 6.91881 38.962 6.75879 38.962 6.56138H39.6903C39.6903 6.35657 39.5242 6.19057 39.3195 6.19057V6.91881ZM38.9617 32.968C38.9617 33.1989 38.7494 33.3715 38.5233 33.3244L38.3748 34.0374C39.0531 34.1787 39.6899 33.6609 39.6899 32.968H38.9617ZM33.1361 11.0468C33.1361 10.5992 32.8648 10.2259 32.5083 10.032L32.1604 10.6718C32.3204 10.7587 32.4079 10.9065 32.4079 11.0468H33.1361ZM38.9497 6.52042C38.9337 6.73516 39.1035 6.91881 39.3195 6.91881V6.19057C39.5276 6.19057 39.6913 6.36759 39.6759 6.57455L38.9497 6.52042Z" fill="#545454"/>
<path d="M17.0307 32.3738C20.7805 31.1996 32.7441 33.4186 39.1004 34.8574C39.5773 34.9654 39.8058 35.5042 39.5602 35.9271L37.8014 38.9561C37.669 39.1841 37.4295 39.3229 37.1658 39.3186C28.9456 39.1852 13.0671 38.8567 12.0972 38.553C10.8638 38.1668 12.0972 33.9186 17.0307 32.3738Z" stroke="#545454" stroke-width="0.728242"/>
</g>
<defs>
<clipPath id="clip0_107_10889">
<rect width="40" height="40" fill="white"/>
</clipPath>
</defs>
</svg>
