<svg width="40" height="40" viewBox="0 0 40 40" fill="none" xmlns="http://www.w3.org/2000/svg">
<g clip-path="url(#clip0_107_10852)">
<path d="M0.546181 13.1083C0.546181 11.8011 1.60583 10.7415 2.91297 10.7415H37.1403C38.4474 10.7415 39.5071 11.8011 39.5071 13.1083V28.4014C39.5071 28.9041 39.0995 29.3117 38.5968 29.3117H1.45648C0.953738 29.3117 0.546181 28.9041 0.546181 28.4014V13.1083Z" stroke="#545454" stroke-width="1.09236"/>
<path d="M3.27818 15.2929C3.27818 13.8852 4.41934 12.744 5.82703 12.744H34.2285C35.6361 12.744 36.7773 13.8852 36.7773 15.2928V25.4882C36.7773 26.0915 36.2882 26.5806 35.6849 26.5806H4.37055C3.76725 26.5806 3.27818 26.0915 3.27818 25.4882V15.2929Z" stroke="#545454" stroke-width="0.728242"/>
<path d="M10.5586 13.1084V26.5809" stroke="#545454" stroke-width="0.728242"/>
<path d="M29.8594 13.1084V26.5809" stroke="#545454" stroke-width="0.728242"/>
<circle cx="6.91826" cy="17.1136" r="1.27442" stroke="#545454" stroke-width="1.09236"/>
<circle cx="33.1331" cy="17.1136" r="1.27442" stroke="#545454" stroke-width="1.09236"/>
<rect x="12.0165" y="20.7547" width="2.18472" height="3.64121" stroke="#545454" stroke-width="0.728242"/>
<rect x="15.6571" y="20.7547" width="2.18472" height="3.64121" stroke="#545454" stroke-width="0.728242"/>
<rect x="19.2977" y="20.7547" width="2.18472" height="3.64121" stroke="#545454" stroke-width="0.728242"/>
<rect x="22.9383" y="20.7547" width="5.82593" height="3.64121" stroke="#545454" stroke-width="0.728242"/>
<path d="M3.27734 21.1191H10.5598" stroke="#545454" stroke-width="0.728242"/>
<path d="M6.91797 21.1191V26.581" stroke="#545454" stroke-width="0.728242"/>
<path d="M29.8594 20.7549H36.7777" stroke="#545454" stroke-width="0.728242"/>
<path d="M33.5 20.7549V26.5808" stroke="#545454" stroke-width="0.728242"/>
</g>
<defs>
<clipPath id="clip0_107_10852">
<rect width="40" height="40" fill="white"/>
</clipPath>
</defs>
</svg>
