<svg width="28" height="28" viewBox="0 0 28 28" fill="none" xmlns="http://www.w3.org/2000/svg">
<g id="&#240;&#159;&#166;&#134; icon &#34;close&#34;">
<path id="Vector" d="M21.3498 6.66151C20.8948 6.20651 20.1598 6.20651 19.7048 6.66151L13.9998 12.3548L8.29484 6.64984C7.83984 6.19484 7.10484 6.19484 6.64984 6.64984C6.19484 7.10484 6.19484 7.83984 6.64984 8.29484L12.3548 13.9998L6.64984 19.7048C6.19484 20.1598 6.19484 20.8948 6.64984 21.3498C7.10484 21.8048 7.83984 21.8048 8.29484 21.3498L13.9998 15.6448L19.7048 21.3498C20.1598 21.8048 20.8948 21.8048 21.3498 21.3498C21.8048 20.8948 21.8048 20.1598 21.3498 19.7048L15.6448 13.9998L21.3498 8.29484C21.7932 7.85151 21.7932 7.10484 21.3498 6.66151Z" fill="#232323"/>
</g>
</svg>
